<?xml version="1.0" encoding="utf-8"?>
<!-- Generator: Adobe Illustrator 20.1.0, SVG Export Plug-In . SVG Version: 6.00 Build 0)  -->
<svg version="1.1" id="Layer_1" xmlns="http://www.w3.org/2000/svg" xmlns:xlink="http://www.w3.org/1999/xlink" x="0px" y="0px"
	 viewBox="0 0 512 512" style="enable-background:new 0 0 512 512;" xml:space="preserve">
<style type="text/css">
	.st0{display:none;}
	.st1{display:inline;}
	.st2{fill:none;stroke:#A9CCDB;stroke-miterlimit:10;}
	.st3{fill:#96969F;}
</style>
<g id="Grid_1_" class="st0">
	<g id="Layer_1_1_" class="st1">
		<g id="Grid">
			<g>
				<rect class="st2" width="512" height="512"/>
				<line class="st2" x1="0" y1="480" x2="512" y2="480"/>
				<line class="st2" x1="0" y1="448" x2="512" y2="448"/>
				<line class="st2" x1="0" y1="416" x2="512" y2="416"/>
				<line class="st2" x1="0" y1="384" x2="512" y2="384"/>
				<line class="st2" x1="0" y1="352" x2="512" y2="352"/>
				<line class="st2" x1="0" y1="320" x2="512" y2="320"/>
				<line class="st2" x1="0" y1="288" x2="512" y2="288"/>
				<line class="st2" x1="0" y1="256" x2="512" y2="256"/>
				<line class="st2" x1="0" y1="224" x2="512" y2="224"/>
				<line class="st2" x1="0" y1="192" x2="512" y2="192"/>
				<line class="st2" x1="0" y1="160" x2="512" y2="160"/>
				<line class="st2" x1="0" y1="128" x2="512" y2="128"/>
				<line class="st2" x1="0" y1="96" x2="512" y2="96"/>
				<line class="st2" x1="0" y1="64" x2="512" y2="64"/>
				<line class="st2" x1="0" y1="32" x2="512" y2="32"/>
				<line class="st2" x1="480" y1="0" x2="480" y2="512"/>
				<line class="st2" x1="448" y1="0" x2="448" y2="512"/>
				<line class="st2" x1="416" y1="0" x2="416" y2="512"/>
				<line class="st2" x1="384" y1="0" x2="384" y2="512"/>
				<line class="st2" x1="352" y1="0" x2="352" y2="512"/>
				<line class="st2" x1="320" y1="0" x2="320" y2="512"/>
				<line class="st2" x1="288" y1="0" x2="288" y2="512"/>
				<line class="st2" x1="256" y1="0" x2="256" y2="512"/>
				<line class="st2" x1="224" y1="0" x2="224" y2="512"/>
				<line class="st2" x1="192" y1="0" x2="192" y2="512"/>
				<line class="st2" x1="160" y1="0" x2="160" y2="512"/>
				<line class="st2" x1="128" y1="0" x2="128" y2="512"/>
				<line class="st2" x1="96" y1="0" x2="96" y2="512"/>
				<line class="st2" x1="64" y1="0" x2="64" y2="512"/>
				<line class="st2" x1="32" y1="0" x2="32" y2="512"/>
			</g>
		</g>
	</g>
</g>
<path class="st3" d="M349.9,343.1c-49.9,49.9-131.1,49.9-181,0c-49.9-49.9-49.9-131.1,0-181c13.2-13.2,29.3-23.3,47.8-29.8
	c5.8-2,12.3-0.6,16.6,3.8c4.4,4.4,5.9,10.8,3.8,16.6c-12.5,35.4-4,73.7,22.2,99.9c26.2,26.2,64.5,34.8,99.9,22.3
	c5.8-2.1,12.3-0.6,16.6,3.8c4.4,4.3,5.8,10.8,3.8,16.6C373.1,313.8,363.1,329.9,349.9,343.1z M191.5,184.8
	c-37.4,37.4-37.4,98.4,0,135.8c40,40,108.1,36.4,143-8.2c-36,2.3-71.4-10.7-97.8-37.1c-26.4-26.4-39.3-61.8-37.1-97.7
	C196.8,179.8,194,182.2,191.5,184.8z"/>
</svg>
