<?xml version="1.0" encoding="utf-8"?>
<!-- Generator: Adobe Illustrator 20.1.0, SVG Export Plug-In . SVG Version: 6.00 Build 0)  -->
<svg version="1.1" id="Layer_1" xmlns="http://www.w3.org/2000/svg" xmlns:xlink="http://www.w3.org/1999/xlink" x="0px" y="0px"
	 viewBox="0 0 512 512" style="enable-background:new 0 0 512 512;" xml:space="preserve">
<style type="text/css">
	.st0{display:none;}
	.st1{display:inline;}
	.st2{fill:none;stroke:#A9CCDB;stroke-miterlimit:10;}
	.st3{fill:#96969F;}
</style>
<g id="Grid_1_" class="st0">
	<g id="Layer_1_1_" class="st1">
		<g id="Grid">
			<g>
				<rect class="st2" width="512" height="512"/>
				<line class="st2" x1="0" y1="480" x2="512" y2="480"/>
				<line class="st2" x1="0" y1="448" x2="512" y2="448"/>
				<line class="st2" x1="0" y1="416" x2="512" y2="416"/>
				<line class="st2" x1="0" y1="384" x2="512" y2="384"/>
				<line class="st2" x1="0" y1="352" x2="512" y2="352"/>
				<line class="st2" x1="0" y1="320" x2="512" y2="320"/>
				<line class="st2" x1="0" y1="288" x2="512" y2="288"/>
				<line class="st2" x1="0" y1="256" x2="512" y2="256"/>
				<line class="st2" x1="0" y1="224" x2="512" y2="224"/>
				<line class="st2" x1="0" y1="192" x2="512" y2="192"/>
				<line class="st2" x1="0" y1="160" x2="512" y2="160"/>
				<line class="st2" x1="0" y1="128" x2="512" y2="128"/>
				<line class="st2" x1="0" y1="96" x2="512" y2="96"/>
				<line class="st2" x1="0" y1="64" x2="512" y2="64"/>
				<line class="st2" x1="0" y1="32" x2="512" y2="32"/>
				<line class="st2" x1="480" y1="0" x2="480" y2="512"/>
				<line class="st2" x1="448" y1="0" x2="448" y2="512"/>
				<line class="st2" x1="416" y1="0" x2="416" y2="512"/>
				<line class="st2" x1="384" y1="0" x2="384" y2="512"/>
				<line class="st2" x1="352" y1="0" x2="352" y2="512"/>
				<line class="st2" x1="320" y1="0" x2="320" y2="512"/>
				<line class="st2" x1="288" y1="0" x2="288" y2="512"/>
				<line class="st2" x1="256" y1="0" x2="256" y2="512"/>
				<line class="st2" x1="224" y1="0" x2="224" y2="512"/>
				<line class="st2" x1="192" y1="0" x2="192" y2="512"/>
				<line class="st2" x1="160" y1="0" x2="160" y2="512"/>
				<line class="st2" x1="128" y1="0" x2="128" y2="512"/>
				<line class="st2" x1="96" y1="0" x2="96" y2="512"/>
				<line class="st2" x1="64" y1="0" x2="64" y2="512"/>
				<line class="st2" x1="32" y1="0" x2="32" y2="512"/>
			</g>
		</g>
	</g>
</g>
<g>
	<g>
		<path class="st3" d="M431,192c-26.5,0-48,21.5-48,48c0,5.6,1.2,11,2.9,16H79c-8.8,0-16,7.2-16,16s7.2,16,16,16h352
			c26.5,0,48-21.5,48-48S457.5,192,431,192z M79,224h192c26.5,0,48-21.5,48-48s-21.5-48-48-48s-48,21.5-48,48c0,5.6,1.2,11,2.9,16
			H79c-8.8,0-16,7.2-16,16S70.2,224,79,224z M335,320c-0.9,0-1.8,0.2-2.8,0.3c-0.6,0-1.1-0.3-1.8-0.3H83.6c-11.4,0-20.6,7.2-20.6,16
			s9.2,16,20.6,16h206.4c-1.8,5-2.9,10.4-2.9,16c0,26.5,21.5,48,48,48s48-21.5,48-48S361.5,320,335,320z"/>
	</g>
</g>
</svg>
