<?xml version="1.0" encoding="utf-8"?>
<!-- Generator: Adobe Illustrator 20.1.0, SVG Export Plug-In . SVG Version: 6.00 Build 0)  -->
<svg version="1.1" id="Layer_1" xmlns="http://www.w3.org/2000/svg" xmlns:xlink="http://www.w3.org/1999/xlink" x="0px" y="0px"
	 viewBox="0 0 512 512" style="enable-background:new 0 0 512 512;" xml:space="preserve">
<style type="text/css">
	.st0{display:none;}
	.st1{display:inline;}
	.st2{fill:none;stroke:#A9CCDB;stroke-miterlimit:10;}
	.st3{fill:#96969F;}
</style>
<g id="Grid_1_" class="st0">
	<g id="Layer_1_1_" class="st1">
		<g id="Grid">
			<g>
				<rect class="st2" width="512" height="512"/>
				<line class="st2" x1="0" y1="480" x2="512" y2="480"/>
				<line class="st2" x1="0" y1="448" x2="512" y2="448"/>
				<line class="st2" x1="0" y1="416" x2="512" y2="416"/>
				<line class="st2" x1="0" y1="384" x2="512" y2="384"/>
				<line class="st2" x1="0" y1="352" x2="512" y2="352"/>
				<line class="st2" x1="0" y1="320" x2="512" y2="320"/>
				<line class="st2" x1="0" y1="288" x2="512" y2="288"/>
				<line class="st2" x1="0" y1="256" x2="512" y2="256"/>
				<line class="st2" x1="0" y1="224" x2="512" y2="224"/>
				<line class="st2" x1="0" y1="192" x2="512" y2="192"/>
				<line class="st2" x1="0" y1="160" x2="512" y2="160"/>
				<line class="st2" x1="0" y1="128" x2="512" y2="128"/>
				<line class="st2" x1="0" y1="96" x2="512" y2="96"/>
				<line class="st2" x1="0" y1="64" x2="512" y2="64"/>
				<line class="st2" x1="0" y1="32" x2="512" y2="32"/>
				<line class="st2" x1="480" y1="0" x2="480" y2="512"/>
				<line class="st2" x1="448" y1="0" x2="448" y2="512"/>
				<line class="st2" x1="416" y1="0" x2="416" y2="512"/>
				<line class="st2" x1="384" y1="0" x2="384" y2="512"/>
				<line class="st2" x1="352" y1="0" x2="352" y2="512"/>
				<line class="st2" x1="320" y1="0" x2="320" y2="512"/>
				<line class="st2" x1="288" y1="0" x2="288" y2="512"/>
				<line class="st2" x1="256" y1="0" x2="256" y2="512"/>
				<line class="st2" x1="224" y1="0" x2="224" y2="512"/>
				<line class="st2" x1="192" y1="0" x2="192" y2="512"/>
				<line class="st2" x1="160" y1="0" x2="160" y2="512"/>
				<line class="st2" x1="128" y1="0" x2="128" y2="512"/>
				<line class="st2" x1="96" y1="0" x2="96" y2="512"/>
				<line class="st2" x1="64" y1="0" x2="64" y2="512"/>
				<line class="st2" x1="32" y1="0" x2="32" y2="512"/>
			</g>
		</g>
	</g>
</g>
<g>
	<g>
		<path class="st3" d="M256,144c-61.8,0-112,50.3-112,112s50.3,112,112,112s112-50.3,112-112S317.8,144,256,144z M256,336
			c-44.2,0-80-35.8-80-80s35.8-80,80-80s80,35.8,80,80S300.2,336,256,336z M256,112c8.8,0,16-7.2,16-16V64c0-8.8-7.2-16-16-16
			s-16,7.2-16,16v32C240,104.8,247.2,112,256,112z M256,400c-8.8,0-16,7.2-16,16v32c0,8.8,7.2,16,16,16s16-7.2,16-16v-32
			C272,407.2,264.8,400,256,400z M380.4,154.2l22.6-22.6c6.3-6.3,6.3-16.4,0-22.6s-16.4-6.3-22.6,0l-22.6,22.6
			c-6.3,6.3-6.3,16.4,0,22.6C364.1,160.4,374.2,160.4,380.4,154.2z M131.6,357.8l-22.6,22.6c-6.3,6.2-6.3,16.4,0,22.6
			s16.4,6.3,22.6,0l22.6-22.6c6.3-6.3,6.3-16.4,0-22.6C147.9,351.6,137.8,351.6,131.6,357.8z M112,256c0-8.8-7.2-16-16-16H64
			c-8.8,0-16,7.2-16,16s7.2,16,16,16h32C104.8,272,112,264.8,112,256z M448,240h-32c-8.8,0-16,7.2-16,16s7.2,16,16,16h32
			c8.8,0,16-7.2,16-16S456.8,240,448,240z M131.5,154.2c6.3,6.3,16.4,6.3,22.6,0c6.3-6.3,6.3-16.4,0-22.6l-22.6-22.6
			c-6.3-6.3-16.4-6.3-22.6,0c-6.3,6.3-6.3,16.4,0,22.6L131.5,154.2z M380.5,357.8c-6.3-6.3-16.4-6.3-22.6,0
			c-6.3,6.3-6.3,16.4,0,22.6l22.6,22.6c6.2,6.3,16.4,6.3,22.6,0s6.3-16.4,0-22.6L380.5,357.8z"/>
	</g>
</g>
</svg>
