<svg fill="#96969f" height="24" viewBox="0 0 512 512" width="24" xmlns="http://www.w3.org/2000/svg">
  <path class="st3" d="M512,176c0-61.8-50.3-112-112-112c-5.3,0-10.6,0.4-15.8,1.1C354.3,24.4,307.2,0,256,0s-98.3,24.4-128.2,65.1
  c-5.2-0.8-10.5-1.1-15.8-1.1C50.3,64,0,114.3,0,176s50.3,112,112,112c13.7,0,27.1-2.5,39.7-7.3C180.7,306,217.5,320,256,320
  s75.3-14.1,104.3-39.3c12.6,4.8,26,7.3,39.7,7.3C461.8,288,512,237.8,512,176z M354.1,241.3C330.6,269.6,295.6,288,256,288
  s-74.6-18.4-98.1-46.7c-13,9.2-28.8,14.7-45.9,14.7c-44.2,0-80-35.8-80-80s35.8-80,80-80c10.8,0,21.1,2.2,30.4,6.1
  C163.7,60.7,206.3,32,256,32s92.3,28.7,113.5,70.1c9.4-3.9,19.7-6.1,30.5-6.1c44.2,0,80,35.8,80,80s-35.8,80-80,80
  C382.9,256,367.1,250.5,354.1,241.3z"/>
  <rect x="-15.4" y="384.9" transform="matrix(0.545 -0.8385 0.8385 0.545 -296.1481 256.0799)" class="st3" width="206.5" height="32"/>
  <rect x="243.7" y="390.3" transform="matrix(0.545 -0.8385 0.8385 0.545 -185.3176 471.1092)" class="st3" width="195.3" height="32"/>
  <rect x="124.9" y="401.1" transform="matrix(0.545 -0.8385 0.8385 0.545 -253.8196 366.5318)" class="st3" width="171.8" height="32"/>
</svg>
