<svg fill="#96969f" height="24" viewBox="0 0 512 512" width="24" xmlns="http://www.w3.org/2000/svg">
  <path class="st3" d="M431,192c-26.5,0-48,21.5-48,48c0,5.6,1.2,11,2.9,16H79c-8.8,0-16,7.2-16,16s7.2,16,16,16h352
  c26.5,0,48-21.5,48-48S457.5,192,431,192z M79,224h192c26.5,0,48-21.5,48-48s-21.5-48-48-48s-48,21.5-48,48c0,5.6,1.2,11,2.9,16
  H79c-8.8,0-16,7.2-16,16S70.2,224,79,224z M335,320c-0.9,0-1.8,0.2-2.8,0.3c-0.6,0-1.1-0.3-1.8-0.3H83.6c-11.4,0-20.6,7.2-20.6,16
  s9.2,16,20.6,16h206.4c-1.8,5-2.9,10.4-2.9,16c0,26.5,21.5,48,48,48s48-21.5,48-48S361.5,320,335,320z"/>
</svg>
