<svg fill="#96969f" height="24" viewBox="0 0 512 512" width="24" xmlns="http://www.w3.org/2000/svg">
  <path class="st0" d="M400,160c-5.3,0-10.6,0.4-15.8,1.1C354.3,120.4,307.2,96,256,96s-98.3,24.4-128.2,65.1
  c-5.2-0.8-10.5-1.1-15.8-1.1C50.3,160,0,210.3,0,272s50.3,112,112,112c13.7,0,27.1-2.5,39.7-7.3c29,25.3,65.8,39.3,104.3,39.3
  c38.5,0,75.3-14.1,104.3-39.3c12.6,4.8,26,7.3,39.7,7.3c61.8,0,112-50.3,112-112S461.8,160,400,160z M400,352
  c-17.1,0-32.9-5.5-45.9-14.7C330.6,365.6,295.6,384,256,384c-39.6,0-74.6-18.4-98.1-46.7c-13,9.2-28.8,14.7-45.9,14.7
  c-44.2,0-80-35.8-80-80s35.8-80,80-80c10.8,0,21.1,2.2,30.4,6.1C163.7,156.7,206.3,128,256,128s92.3,28.7,113.5,70.1
  c9.4-3.9,19.7-6.1,30.5-6.1c44.2,0,80,35.8,80,80S444.2,352,400,352z"/>
</svg>
